<svg xmlns="http://www.w3.org/2000/svg" viewBox="0 0 24 23.406"><defs><style>.a{fill:#f5f6fa;}</style></defs><path class="a" d="M12,.3A12,12,0,0,0,8.2,23.682c.6.113.82-.258.82-.577,0-.285-.01-1.04-.015-2.04-3.338.724-4.042-1.61-4.042-1.61A3.181,3.181,0,0,0,3.633,17.7c-1.087-.744.084-.729.084-.729a2.516,2.516,0,0,1,1.838,1.236,2.557,2.557,0,0,0,3.495,1,2.558,2.558,0,0,1,.76-1.6c-2.665-.3-5.466-1.332-5.466-5.93A4.63,4.63,0,0,1,5.579,8.45a4.267,4.267,0,0,1,.105-3.176s1.005-.322,3.3,1.23a11.314,11.314,0,0,1,6,0c2.28-1.552,3.285-1.23,3.285-1.23a4.385,4.385,0,0,1,.12,3.176,4.648,4.648,0,0,1,1.23,3.22c0,4.61-2.805,5.625-5.475,5.92a2.873,2.873,0,0,1,.81,2.22c0,1.606-.015,2.9-.015,3.286,0,.315.21.69.825.57A11.985,11.985,0,0,0,12,.3" transform="translate(0 -0.297)"/></svg>