<svg xmlns="http://www.w3.org/2000/svg" viewBox="0 0 24 24.001"><defs><style>.a{fill:#f5f6fa;}</style></defs><g transform="translate(0 0)"><path class="a" d="M9.879,10.995l1.035,3.085,3.2-1.074L13.084,9.932l-3.2,1.08v-.017Z"/><path class="a" d="M18.824,14.055l-1.555.521.54,1.61a1.246,1.246,0,0,1-.786,1.574,1.337,1.337,0,0,1-.435.063,1.26,1.26,0,0,1-1.155-.849l-.54-1.607-3.21,1.073.539,1.608a1.249,1.249,0,0,1-.794,1.575,1.286,1.286,0,0,1-.435.064,1.266,1.266,0,0,1-1.156-.85L9.3,17.218l-1.561.524A1.451,1.451,0,0,1,7.3,17.8a1.269,1.269,0,0,1-1.155-.855,1.235,1.235,0,0,1,.78-1.575l1.56-.525L7.5,11.76l-1.551.525a1.264,1.264,0,0,1-.428.064,1.241,1.241,0,0,1-.345-2.422l1.56-.52L6.2,7.8a1.249,1.249,0,0,1,2.37-.792L9.1,8.618l3.2-1.074-.54-1.605a1.245,1.245,0,1,1,2.364-.783l.54,1.621,1.555-.51a1.242,1.242,0,1,1,.791,2.354l-1.557.524,1.035,3.086,1.551-.516a1.25,1.25,0,0,1,.8,2.369l-.011-.029ZM22.995,8.7C20.52.456,16.946-1.471,8.7,1S-1.471,7.051,1,15.3s6.046,10.17,14.3,7.694,10.17-6.046,7.694-14.3Z"/></g></svg>